<svg width="24" height="24" viewBox="0 0 24 24" fill="none" xmlns="http://www.w3.org/2000/svg">
<path d="M8 4C3.58 4 0 7.58 0 12C0 16.42 3.58 20 8 20C12.42 20 16 16.42 16 12C16 7.58 12.42 4 8 4ZM18.5 12C18.5 12.69 18.22 13.32 17.77 13.77L19.18 15.18C20 14.37 20.5 13.24 20.5 12C20.5 10.76 20 9.63 19.18 8.82L17.77 10.23C18.22 10.68 18.5 11.31 18.5 12ZM22 12C22 13.66 21.33 15.16 20.24 16.24L21.65 17.65C23.1 16.21 24 14.21 24 12C24 9.79 23.1 7.79 21.65 6.35L20.24 7.76C20.8 8.31463 21.244 8.97516 21.5462 9.7031C21.8483 10.431 22.0026 11.2118 22 12ZM11.81 14.42L10.42 15.81L7 12.39V8H9V11.61L11.81 14.42Z" fill="#2C2C2C"/>
</svg>
