<svg width="12" height="17" viewBox="0 0 12 17" fill="none" xmlns="http://www.w3.org/2000/svg">
<path d="M11.6667 14C11.6667 15.4728 10.4728 16.6667 9 16.6667C7.52724 16.6667 6.33333 15.4728 6.33333 14C6.33333 12.5272 7.52724 11.3333 9 11.3333C10.4728 11.3333 11.6667 12.5272 11.6667 14ZM8.5 2C8.5 1.72386 8.72386 1.5 9 1.5C9.27614 1.5 9.5 1.72386 9.5 2L8.5 2ZM8.5 14L8.5 2L9.5 2L9.5 14L8.5 14Z" fill="black"/>
<path d="M0.333334 3C0.333334 1.52724 1.52724 0.333333 3 0.333333C4.47276 0.333333 5.66667 1.52724 5.66667 3C5.66667 4.47276 4.47276 5.66667 3 5.66667C1.52724 5.66667 0.333334 4.47276 0.333334 3ZM3.5 15C3.5 15.2761 3.27614 15.5 3 15.5C2.72386 15.5 2.5 15.2761 2.5 15L3.5 15ZM3.5 3L3.5 15L2.5 15L2.5 3L3.5 3Z" fill="black"/>
</svg>
