<svg width="54" height="54" viewBox="0 0 54 54" fill="none" xmlns="http://www.w3.org/2000/svg">
<path fill-rule="evenodd" clip-rule="evenodd" d="M27 3.42912e-07C23.8749 -0.000638541 20.8163 0.891471 18.193 2.56879C15.5696 4.2461 13.4935 6.63702 12.2148 9.45333C12.0329 9.85709 11.8466 10.2589 11.6559 10.6587L11.6019 10.6613C11.4291 10.6667 11.1942 10.6667 10.8 10.6667C7.93566 10.6667 5.18864 11.7905 3.16325 13.7909C1.13785 15.7912 0 18.5044 0 21.3333C0 24.1623 1.13785 26.8754 3.16325 28.8758C5.18864 30.8762 7.93566 32 10.8 32H11.2644L16.6644 26.6667H10.8C9.36783 26.6667 7.99432 26.1048 6.98162 25.1046C5.96893 24.1044 5.4 22.7478 5.4 21.3333C5.4 19.9188 5.96893 18.5623 6.98162 17.5621C7.99432 16.5619 9.36783 16 10.8 16H10.9728C11.5344 16 12.1878 16.0027 12.7278 15.8933C13.4 15.7798 14.0425 15.535 14.6178 15.1733C15.2685 14.7573 15.7167 14.24 16.0569 13.768C16.2653 13.464 16.4469 13.1428 16.5996 12.808C16.7436 12.5111 16.92 12.1307 17.1288 11.6667L17.1396 11.64C17.9912 9.76043 19.3754 8.16441 21.125 7.04453C22.8747 5.92466 24.9151 5.32877 27 5.32877C29.0849 5.32877 31.1253 5.92466 32.875 7.04453C34.6246 8.16441 36.0088 9.76043 36.8604 11.64L36.8739 11.6667C37.0809 12.1289 37.2564 12.5093 37.4004 12.808C37.5246 13.0667 37.7082 13.4427 37.9431 13.768C38.2833 14.2373 38.7288 14.7573 39.3822 15.176C40.0356 15.592 40.6971 15.7813 41.2722 15.896C41.8122 16.0027 42.4656 16.0027 43.0272 16.0027L43.2 16C44.6322 16 46.0057 16.5619 47.0184 17.5621C48.0311 18.5623 48.6 19.9188 48.6 21.3333C48.6 22.7478 48.0311 24.1044 47.0184 25.1046C46.0057 26.1048 44.6322 26.6667 43.2 26.6667H37.3356L42.7356 32H43.2C46.0643 32 48.8114 30.8762 50.8368 28.8758C52.8621 26.8754 54 24.1623 54 21.3333C54 18.5044 52.8621 15.7912 50.8368 13.7909C48.8114 11.7905 46.0643 10.6667 43.2 10.6667C42.8058 10.6667 42.5709 10.6667 42.3981 10.6613H42.3441L42.2766 10.52C42.1095 10.1659 41.9457 9.81036 41.7852 9.45333C40.5065 6.63702 38.4304 4.2461 35.807 2.56879C33.1837 0.891471 30.1251 -0.000638541 27 3.42912e-07Z" fill="black"/>
<path d="M27 26.8404L25.0474 24.9202L27 23L28.9526 24.9202L27 26.8404ZM29.7618 51.284C29.7618 52.0044 29.4709 52.6952 28.9529 53.2045C28.435 53.7139 27.7325 54 27 54C26.2675 54 25.565 53.7139 25.0471 53.2045C24.5291 52.6952 24.2382 52.0044 24.2382 51.284H29.7618ZM14 35.784L25.0474 24.9202L28.9526 28.7606L17.9052 39.6244L14 35.784ZM28.9526 24.9202L40 35.784L36.0948 39.6244L25.0474 28.7606L28.9526 24.9202ZM29.7618 26.8404V51.284H24.2382V26.8404H29.7618Z" fill="black"/>
</svg>
