<svg width="121" height="67" viewBox="0 0 121 67" fill="none" xmlns="http://www.w3.org/2000/svg">
<path d="M6.83751 58V48.2H10.8135C11.3828 48.2 11.8728 48.3027 12.2835 48.508C12.7035 48.704 13.0255 48.9887 13.2495 49.362C13.4735 49.726 13.5855 50.16 13.5855 50.664C13.5855 51.2053 13.4315 51.672 13.1235 52.064C12.8155 52.4467 12.3955 52.7127 11.8635 52.862L11.8355 52.596C12.2928 52.68 12.6895 52.8433 13.0255 53.086C13.3615 53.3193 13.6228 53.6087 13.8095 53.954C14.0055 54.2993 14.1035 54.6867 14.1035 55.116C14.1035 55.5547 14.0288 55.9513 13.8795 56.306C13.7302 56.6607 13.5155 56.964 13.2355 57.216C12.9648 57.468 12.6335 57.664 12.2415 57.804C11.8588 57.9347 11.4295 58 10.9535 58H6.83751ZM7.92951 56.936H10.8695C11.2895 56.936 11.6535 56.866 11.9615 56.726C12.2788 56.5767 12.5215 56.3667 12.6895 56.096C12.8668 55.8253 12.9555 55.5127 12.9555 55.158C12.9555 54.822 12.8622 54.528 12.6755 54.276C12.4982 54.024 12.2462 53.828 11.9195 53.688C11.6022 53.548 11.2288 53.478 10.7995 53.478H7.92951V56.936ZM7.92951 52.414H10.7295C11.0655 52.414 11.3642 52.3487 11.6255 52.218C11.8868 52.078 12.0922 51.8913 12.2415 51.658C12.3908 51.4153 12.4655 51.1447 12.4655 50.846C12.4655 50.37 12.3022 49.9873 11.9755 49.698C11.6582 49.4087 11.2102 49.264 10.6315 49.264H7.92951V52.414ZM18.4001 58.14C17.8401 58.14 17.3641 58.028 16.9721 57.804C16.5894 57.5707 16.2954 57.2347 16.0901 56.796C15.8941 56.3573 15.7961 55.8113 15.7961 55.158V50.692H16.8601V54.948C16.8601 55.4427 16.9254 55.858 17.0561 56.194C17.1961 56.5207 17.4014 56.768 17.6721 56.936C17.9521 57.104 18.2928 57.188 18.6941 57.188C19.0021 57.188 19.2868 57.1367 19.5481 57.034C19.8094 56.922 20.0381 56.7727 20.2341 56.586C20.4301 56.3993 20.5841 56.18 20.6961 55.928C20.8081 55.676 20.8641 55.41 20.8641 55.13V50.692H21.9141V58H20.8781L20.8361 56.46L21.0041 56.376C20.8921 56.7027 20.7054 57.0013 20.4441 57.272C20.1828 57.5333 19.8701 57.7433 19.5061 57.902C19.1514 58.0607 18.7828 58.14 18.4001 58.14ZM26.3525 58.14C25.7272 58.14 25.1672 58.0233 24.6725 57.79C24.1779 57.5567 23.7859 57.2487 23.4965 56.866L24.2385 56.222C24.5092 56.5487 24.8265 56.796 25.1905 56.964C25.5639 57.132 25.9792 57.216 26.4365 57.216C26.6699 57.216 26.8799 57.1927 27.0665 57.146C27.2532 57.09 27.4165 57.0107 27.5565 56.908C27.6965 56.8053 27.8039 56.684 27.8785 56.544C27.9532 56.404 27.9905 56.25 27.9905 56.082C27.9905 55.774 27.8552 55.5173 27.5845 55.312C27.4632 55.228 27.2905 55.144 27.0665 55.06C26.8425 54.9667 26.5719 54.878 26.2545 54.794C25.7319 54.6447 25.2979 54.4953 24.9525 54.346C24.6072 54.1873 24.3365 54.0053 24.1405 53.8C24.0005 53.632 23.8932 53.45 23.8185 53.254C23.7532 53.058 23.7205 52.8433 23.7205 52.61C23.7205 52.3113 23.7812 52.036 23.9025 51.784C24.0332 51.532 24.2105 51.3127 24.4345 51.126C24.6679 50.93 24.9385 50.7853 25.2465 50.692C25.5639 50.5893 25.9045 50.538 26.2685 50.538C26.6139 50.538 26.9545 50.5847 27.2905 50.678C27.6265 50.7713 27.9392 50.9067 28.2285 51.084C28.5179 51.2613 28.7652 51.4713 28.9705 51.714L28.3265 52.414C28.1492 52.2273 27.9532 52.0593 27.7385 51.91C27.5239 51.7607 27.2952 51.644 27.0525 51.56C26.8192 51.476 26.5765 51.434 26.3245 51.434C26.1005 51.434 25.8905 51.462 25.6945 51.518C25.5079 51.574 25.3445 51.6533 25.2045 51.756C25.0739 51.8493 24.9712 51.966 24.8965 52.106C24.8312 52.246 24.7985 52.4 24.7985 52.568C24.7985 52.708 24.8265 52.834 24.8825 52.946C24.9385 53.058 25.0179 53.156 25.1205 53.24C25.2512 53.3427 25.4332 53.4407 25.6665 53.534C25.9092 53.618 26.2079 53.7067 26.5625 53.8C26.9732 53.912 27.3185 54.0287 27.5985 54.15C27.8879 54.262 28.1259 54.3973 28.3125 54.556C28.5645 54.7427 28.7419 54.9573 28.8445 55.2C28.9565 55.4427 29.0125 55.718 29.0125 56.026C29.0125 56.4367 28.8959 56.8007 28.6625 57.118C28.4385 57.4353 28.1259 57.6873 27.7245 57.874C27.3232 58.0513 26.8659 58.14 26.3525 58.14ZM30.9377 58V50.692H31.9877V58H30.9377ZM31.4557 49.11C31.1944 49.11 30.9937 49.0447 30.8537 48.914C30.7231 48.774 30.6577 48.5873 30.6577 48.354C30.6577 48.1207 30.7277 47.934 30.8677 47.794C31.0077 47.654 31.2037 47.584 31.4557 47.584C31.7077 47.584 31.9037 47.654 32.0437 47.794C32.1837 47.9247 32.2537 48.1113 32.2537 48.354C32.2537 48.578 32.1837 48.76 32.0437 48.9C31.9037 49.04 31.7077 49.11 31.4557 49.11ZM34.2808 58V50.692H35.3168L35.3588 52.218L35.1908 52.288C35.2841 51.9707 35.4661 51.6813 35.7368 51.42C36.0075 51.1587 36.3295 50.9487 36.7028 50.79C37.0855 50.622 37.4775 50.538 37.8788 50.538C38.4201 50.538 38.8728 50.6453 39.2368 50.86C39.6008 51.0747 39.8761 51.406 40.0628 51.854C40.2495 52.302 40.3428 52.8713 40.3428 53.562V58H39.2788V53.618C39.2788 53.1327 39.2135 52.736 39.0828 52.428C38.9615 52.1107 38.7701 51.8773 38.5088 51.728C38.2475 51.5787 37.9255 51.5087 37.5428 51.518C37.2255 51.518 36.9315 51.574 36.6608 51.686C36.3901 51.7887 36.1568 51.9333 35.9608 52.12C35.7648 52.3067 35.6108 52.5213 35.4988 52.764C35.3868 53.0067 35.3308 53.268 35.3308 53.548V58H34.8128C34.7475 58 34.6728 58 34.5888 58C34.5048 58 34.4021 58 34.2808 58ZM45.5672 58.14C44.8392 58.14 44.1905 57.9813 43.6212 57.664C43.0612 57.3467 42.6225 56.9033 42.3052 56.334C41.9879 55.7647 41.8292 55.1113 41.8292 54.374C41.8292 53.8047 41.9179 53.2913 42.0952 52.834C42.2725 52.3673 42.5199 51.9613 42.8372 51.616C43.1639 51.2707 43.5512 51.0047 43.9992 50.818C44.4472 50.622 44.9325 50.524 45.4552 50.524C45.9499 50.524 46.3979 50.6127 46.7992 50.79C47.2099 50.9673 47.5599 51.2147 47.8492 51.532C48.1479 51.84 48.3719 52.2087 48.5212 52.638C48.6705 53.0673 48.7359 53.5387 48.7172 54.052L48.7032 54.542H42.6132L42.4592 53.66H47.9052L47.6532 53.898V53.562C47.6345 53.226 47.5365 52.904 47.3592 52.596C47.1819 52.2787 46.9299 52.022 46.6032 51.826C46.2859 51.63 45.9032 51.532 45.4552 51.532C44.9325 51.532 44.4799 51.6393 44.0972 51.854C43.7145 52.0593 43.4205 52.3673 43.2152 52.778C43.0099 53.1887 42.9072 53.6973 42.9072 54.304C42.9072 54.8827 43.0192 55.3867 43.2432 55.816C43.4672 56.236 43.7845 56.5627 44.1952 56.796C44.6152 57.0293 45.1192 57.146 45.7072 57.146C46.0525 57.146 46.3932 57.09 46.7292 56.978C47.0745 56.8567 47.4525 56.6233 47.8632 56.278L48.4092 57.034C48.1945 57.2487 47.9379 57.44 47.6392 57.608C47.3405 57.7667 47.0139 57.8973 46.6592 58C46.3045 58.0933 45.9405 58.14 45.5672 58.14ZM52.6025 58.14C51.9772 58.14 51.4172 58.0233 50.9225 57.79C50.4279 57.5567 50.0359 57.2487 49.7465 56.866L50.4885 56.222C50.7592 56.5487 51.0765 56.796 51.4405 56.964C51.8139 57.132 52.2292 57.216 52.6865 57.216C52.9199 57.216 53.1299 57.1927 53.3165 57.146C53.5032 57.09 53.6665 57.0107 53.8065 56.908C53.9465 56.8053 54.0539 56.684 54.1285 56.544C54.2032 56.404 54.2405 56.25 54.2405 56.082C54.2405 55.774 54.1052 55.5173 53.8345 55.312C53.7132 55.228 53.5405 55.144 53.3165 55.06C53.0925 54.9667 52.8219 54.878 52.5045 54.794C51.9819 54.6447 51.5479 54.4953 51.2025 54.346C50.8572 54.1873 50.5865 54.0053 50.3905 53.8C50.2505 53.632 50.1432 53.45 50.0685 53.254C50.0032 53.058 49.9705 52.8433 49.9705 52.61C49.9705 52.3113 50.0312 52.036 50.1525 51.784C50.2832 51.532 50.4605 51.3127 50.6845 51.126C50.9179 50.93 51.1885 50.7853 51.4965 50.692C51.8139 50.5893 52.1545 50.538 52.5185 50.538C52.8639 50.538 53.2045 50.5847 53.5405 50.678C53.8765 50.7713 54.1892 50.9067 54.4785 51.084C54.7679 51.2613 55.0152 51.4713 55.2205 51.714L54.5765 52.414C54.3992 52.2273 54.2032 52.0593 53.9885 51.91C53.7739 51.7607 53.5452 51.644 53.3025 51.56C53.0692 51.476 52.8265 51.434 52.5745 51.434C52.3505 51.434 52.1405 51.462 51.9445 51.518C51.7579 51.574 51.5945 51.6533 51.4545 51.756C51.3239 51.8493 51.2212 51.966 51.1465 52.106C51.0812 52.246 51.0485 52.4 51.0485 52.568C51.0485 52.708 51.0765 52.834 51.1325 52.946C51.1885 53.058 51.2679 53.156 51.3705 53.24C51.5012 53.3427 51.6832 53.4407 51.9165 53.534C52.1592 53.618 52.4579 53.7067 52.8125 53.8C53.2232 53.912 53.5685 54.0287 53.8485 54.15C54.1379 54.262 54.3759 54.3973 54.5625 54.556C54.8145 54.7427 54.9919 54.9573 55.0945 55.2C55.2065 55.4427 55.2625 55.718 55.2625 56.026C55.2625 56.4367 55.1459 56.8007 54.9125 57.118C54.6885 57.4353 54.3759 57.6873 53.9745 57.874C53.5732 58.0513 53.1159 58.14 52.6025 58.14ZM59.3017 58.14C58.6764 58.14 58.1164 58.0233 57.6217 57.79C57.1271 57.5567 56.7351 57.2487 56.4457 56.866L57.1877 56.222C57.4584 56.5487 57.7757 56.796 58.1397 56.964C58.5131 57.132 58.9284 57.216 59.3857 57.216C59.6191 57.216 59.8291 57.1927 60.0157 57.146C60.2024 57.09 60.3657 57.0107 60.5057 56.908C60.6457 56.8053 60.7531 56.684 60.8277 56.544C60.9024 56.404 60.9397 56.25 60.9397 56.082C60.9397 55.774 60.8044 55.5173 60.5337 55.312C60.4124 55.228 60.2397 55.144 60.0157 55.06C59.7917 54.9667 59.5211 54.878 59.2037 54.794C58.6811 54.6447 58.2471 54.4953 57.9017 54.346C57.5564 54.1873 57.2857 54.0053 57.0897 53.8C56.9497 53.632 56.8424 53.45 56.7677 53.254C56.7024 53.058 56.6697 52.8433 56.6697 52.61C56.6697 52.3113 56.7304 52.036 56.8517 51.784C56.9824 51.532 57.1597 51.3127 57.3837 51.126C57.6171 50.93 57.8877 50.7853 58.1957 50.692C58.5131 50.5893 58.8537 50.538 59.2177 50.538C59.5631 50.538 59.9037 50.5847 60.2397 50.678C60.5757 50.7713 60.8884 50.9067 61.1777 51.084C61.4671 51.2613 61.7144 51.4713 61.9197 51.714L61.2757 52.414C61.0984 52.2273 60.9024 52.0593 60.6877 51.91C60.4731 51.7607 60.2444 51.644 60.0017 51.56C59.7684 51.476 59.5257 51.434 59.2737 51.434C59.0497 51.434 58.8397 51.462 58.6437 51.518C58.4571 51.574 58.2937 51.6533 58.1537 51.756C58.0231 51.8493 57.9204 51.966 57.8457 52.106C57.7804 52.246 57.7477 52.4 57.7477 52.568C57.7477 52.708 57.7757 52.834 57.8317 52.946C57.8877 53.058 57.9671 53.156 58.0697 53.24C58.2004 53.3427 58.3824 53.4407 58.6157 53.534C58.8584 53.618 59.1571 53.7067 59.5117 53.8C59.9224 53.912 60.2677 54.0287 60.5477 54.15C60.8371 54.262 61.0751 54.3973 61.2617 54.556C61.5137 54.7427 61.6911 54.9573 61.7937 55.2C61.9057 55.4427 61.9617 55.718 61.9617 56.026C61.9617 56.4367 61.8451 56.8007 61.6117 57.118C61.3877 57.4353 61.0751 57.6873 60.6737 57.874C60.2724 58.0513 59.8151 58.14 59.3017 58.14ZM67.9508 58V48.2H71.8288C72.3421 48.2 72.8041 48.326 73.2148 48.578C73.6255 48.83 73.9521 49.18 74.1948 49.628C74.4375 50.0667 74.5588 50.5613 74.5588 51.112C74.5588 51.6907 74.4375 52.2087 74.1948 52.666C73.9521 53.114 73.6255 53.4733 73.2148 53.744C72.8041 54.0053 72.3421 54.136 71.8288 54.136H69.0428V58H67.9508ZM69.0428 53.072H71.8848C72.1741 53.072 72.4308 52.988 72.6548 52.82C72.8881 52.6427 73.0748 52.4093 73.2148 52.12C73.3548 51.8213 73.4248 51.4807 73.4248 51.098C73.4248 50.7527 73.3548 50.4447 73.2148 50.174C73.0748 49.894 72.8881 49.6747 72.6548 49.516C72.4308 49.348 72.1741 49.264 71.8848 49.264H69.0428V53.072ZM78.9591 58.14C78.3244 58.14 77.7504 57.9767 77.2371 57.65C76.7237 57.314 76.3177 56.8613 76.0191 56.292C75.7204 55.7133 75.5711 55.06 75.5711 54.332C75.5711 53.5947 75.7251 52.9413 76.0331 52.372C76.3411 51.8027 76.7517 51.3547 77.2651 51.028C77.7877 50.7013 78.3711 50.538 79.0151 50.538C79.3977 50.538 79.7524 50.594 80.0791 50.706C80.4057 50.818 80.6951 50.9767 80.9471 51.182C81.2084 51.378 81.4231 51.6113 81.5911 51.882C81.7684 52.1433 81.8897 52.428 81.9551 52.736L81.6471 52.582L81.6891 50.692H82.7391V58H81.6751V56.208L81.9551 56.026C81.8897 56.306 81.7637 56.5767 81.5771 56.838C81.3904 57.09 81.1617 57.314 80.8911 57.51C80.6297 57.706 80.3311 57.86 79.9951 57.972C79.6684 58.084 79.3231 58.14 78.9591 58.14ZM79.1971 57.132C79.6824 57.132 80.1164 57.0153 80.4991 56.782C80.8817 56.5393 81.1804 56.208 81.3951 55.788C81.6191 55.3587 81.7311 54.8733 81.7311 54.332C81.7311 53.7907 81.6191 53.31 81.3951 52.89C81.1804 52.47 80.8817 52.1387 80.4991 51.896C80.1164 51.6533 79.6824 51.532 79.1971 51.532C78.7024 51.532 78.2637 51.6533 77.8811 51.896C77.5077 52.1387 77.2091 52.47 76.9851 52.89C76.7704 53.31 76.6631 53.7907 76.6631 54.332C76.6631 54.864 76.7704 55.3447 76.9851 55.774C77.1997 56.194 77.4984 56.5253 77.8811 56.768C78.2637 57.0107 78.7024 57.132 79.1971 57.132ZM84.7847 58V50.692H85.8347L85.8627 52.638L85.7507 52.372C85.8534 52.0453 86.0167 51.742 86.2407 51.462C86.474 51.182 86.7494 50.958 87.0667 50.79C87.384 50.622 87.734 50.538 88.1167 50.538C88.2754 50.538 88.4247 50.552 88.5647 50.58C88.7047 50.5987 88.8214 50.6267 88.9147 50.664L88.6207 51.84C88.4994 51.784 88.3734 51.7467 88.2427 51.728C88.1214 51.7 88.0047 51.686 87.8927 51.686C87.5754 51.686 87.2907 51.742 87.0387 51.854C86.7867 51.966 86.572 52.1247 86.3947 52.33C86.2174 52.526 86.082 52.7547 85.9887 53.016C85.8954 53.2773 85.8487 53.5573 85.8487 53.856V58H84.7847ZM91.2888 58V48.774H92.3388V58H91.2888ZM89.6368 51.7V50.692H94.1868V51.7H89.6368ZM95.4761 58V50.692H96.5121L96.5541 52.218L96.3861 52.288C96.4794 51.9707 96.6614 51.6813 96.9321 51.42C97.2028 51.1587 97.5248 50.9487 97.8981 50.79C98.2808 50.622 98.6728 50.538 99.0741 50.538C99.6154 50.538 100.068 50.6453 100.432 50.86C100.796 51.0747 101.071 51.406 101.258 51.854C101.445 52.302 101.538 52.8713 101.538 53.562V58H100.474V53.618C100.474 53.1327 100.409 52.736 100.278 52.428C100.157 52.1107 99.9654 51.8773 99.7041 51.728C99.4428 51.5787 99.1208 51.5087 98.7381 51.518C98.4208 51.518 98.1268 51.574 97.8561 51.686C97.5854 51.7887 97.3521 51.9333 97.1561 52.12C96.9601 52.3067 96.8061 52.5213 96.6941 52.764C96.5821 53.0067 96.5261 53.268 96.5261 53.548V58H96.0081C95.9428 58 95.8681 58 95.7841 58C95.7001 58 95.5974 58 95.4761 58ZM106.763 58.14C106.035 58.14 105.386 57.9813 104.817 57.664C104.257 57.3467 103.818 56.9033 103.501 56.334C103.183 55.7647 103.025 55.1113 103.025 54.374C103.025 53.8047 103.113 53.2913 103.291 52.834C103.468 52.3673 103.715 51.9613 104.033 51.616C104.359 51.2707 104.747 51.0047 105.195 50.818C105.643 50.622 106.128 50.524 106.651 50.524C107.145 50.524 107.593 50.6127 107.995 50.79C108.405 50.9673 108.755 51.2147 109.045 51.532C109.343 51.84 109.567 52.2087 109.717 52.638C109.866 53.0673 109.931 53.5387 109.913 54.052L109.899 54.542H103.809L103.655 53.66H109.101L108.849 53.898V53.562C108.83 53.226 108.732 52.904 108.555 52.596C108.377 52.2787 108.125 52.022 107.799 51.826C107.481 51.63 107.099 51.532 106.651 51.532C106.128 51.532 105.675 51.6393 105.293 51.854C104.91 52.0593 104.616 52.3673 104.411 52.778C104.205 53.1887 104.103 53.6973 104.103 54.304C104.103 54.8827 104.215 55.3867 104.439 55.816C104.663 56.236 104.98 56.5627 105.391 56.796C105.811 57.0293 106.315 57.146 106.903 57.146C107.248 57.146 107.589 57.09 107.925 56.978C108.27 56.8567 108.648 56.6233 109.059 56.278L109.605 57.034C109.39 57.2487 109.133 57.44 108.835 57.608C108.536 57.7667 108.209 57.8973 107.855 58C107.5 58.0933 107.136 58.14 106.763 58.14ZM111.404 58V50.692H112.454L112.482 52.638L112.37 52.372C112.473 52.0453 112.636 51.742 112.86 51.462C113.093 51.182 113.369 50.958 113.686 50.79C114.003 50.622 114.353 50.538 114.736 50.538C114.895 50.538 115.044 50.552 115.184 50.58C115.324 50.5987 115.441 50.6267 115.534 50.664L115.24 51.84C115.119 51.784 114.993 51.7467 114.862 51.728C114.741 51.7 114.624 51.686 114.512 51.686C114.195 51.686 113.91 51.742 113.658 51.854C113.406 51.966 113.191 52.1247 113.014 52.33C112.837 52.526 112.701 52.7547 112.608 53.016C112.515 53.2773 112.468 53.5573 112.468 53.856V58H111.404Z" fill="#615757"/>
<g clip-path="url(#clip0_1419_211)">
<path d="M45.1455 8.93358C44.9357 9.44391 45.2142 9.82792 45.3797 9.95613C45.564 10.175 46.4458 10.8285 48.4994 11.6916C51.0662 12.7704 52.1248 13.474 52.4902 13.7179C52.7825 13.9131 53.3052 13.8618 53.5298 13.8118C54.1327 13.6241 55.4728 13.1701 56.0125 12.8549C56.552 12.5397 56.9806 12.4108 57.1274 12.3858C57.8923 12.2044 59.4769 11.8455 59.6942 11.8605C59.9115 11.8755 60.0593 11.8042 60.1063 11.7667C60.225 11.6822 60.5165 11.3933 60.7338 10.913C61.0057 10.3126 61.0151 9.26192 60.9118 8.76472C60.8088 8.26752 60.2187 7.0386 60.0032 6.71963C59.7878 6.4007 58.7104 4.71209 58.6262 4.61827C58.5418 4.52448 57.7174 3.25802 57.605 3.09855C57.5151 2.97095 57.1179 2.33868 56.9305 2.03848C56.8618 1.91027 56.6851 1.59006 56.5276 1.3349C56.3703 1.07973 56.0875 0.365521 55.9656 0.0403111C55.5721 -0.222359 51.0379 0.884609 51.0662 0.884609C51.0943 0.884609 48.6774 1.71015 48.6491 1.76643C48.6268 1.81146 48.4588 2.12291 48.3775 2.27301C47.7591 3.49881 46.4928 6.00107 46.3727 6.20369C46.2228 6.45698 45.4079 8.29566 45.1455 8.93358Z" fill="#29400F"/>
<path d="M45.8372 8.42222C46.3037 7.24053 47.8705 4.43899 48.5801 3.43359C48.5523 3.63997 48.6076 4.63122 48.8668 5.03455C49.1908 5.53874 49.5667 6.24633 50.853 7.14852C51.8822 7.87029 53.4042 9.09446 54.0367 9.61631C54.4931 10.0291 55.421 10.9855 55.4803 11.5092C55.7146 11.4915 56.3207 11.4119 56.8685 11.235C57.4164 11.0581 58.5035 10.66 58.9785 10.4831L60.5979 9.82859C60.4721 10.055 60.0089 10.3947 59.7929 10.5362C59.6079 10.6423 59.2173 10.8706 59.1358 10.9342C59.034 11.0138 57.2017 11.801 57.0258 11.8984C56.8499 11.9956 55.9802 12.3671 55.9524 12.3848C55.9246 12.4025 55.3508 12.7209 54.6752 13.0128C53.9995 13.3047 53.4073 13.287 53.0741 13.2959C52.7409 13.3047 52.4725 13.0836 52.3894 13.0305C52.3226 12.9881 51.8557 12.7652 51.6305 12.659C50.89 12.3259 49.3502 11.6188 49.1132 11.4561C48.817 11.2527 48.6228 11.1819 47.9934 10.9696C47.3643 10.7573 46.8736 10.5274 46.4478 10.2885C46.0222 10.0497 45.7724 9.8109 45.6336 9.55438C45.5225 9.34919 45.5873 9.1033 45.6336 9.006L45.8372 8.42222Z" fill="#325712"/>
<path d="M59.7671 10.6868C59.6743 10.7221 57.2351 12.0464 57.2168 12.0464C57.8721 11.9522 59.3165 11.7197 59.8507 11.5432C60.5184 11.3225 60.7318 10.06 60.7223 10.1129C60.7132 10.1659 59.8599 10.6515 59.7671 10.6868Z" fill="#325712"/>
<path d="M48.1974 9.40983C47.227 9.1273 47.8949 6.47332 48.3502 5.18164C48.4548 5.61555 48.9489 6.67716 50.0892 7.45216C51.2292 8.22717 51.8253 8.60254 51.9808 8.69337C52.3653 8.91875 53.1531 9.45223 53.2278 9.78321C53.3211 10.197 53.1258 10.1667 52.9903 10.096C52.5218 9.73276 51.1946 9.73612 50.5896 9.78321C50.1964 9.77649 49.1678 9.69239 48.1974 9.40983Z" fill="#396415"/>
<path d="M52.7018 12.4977C52.6137 12.1829 52.2467 11.8956 52.0742 11.7913C52.275 11.5592 52.8297 11.2193 53.3212 11.0244C53.7029 10.873 54.2599 10.8192 54.407 10.752L54.6395 11.0446C55.0964 11.8332 54.2455 12.5082 54.2203 12.5482C54.1949 12.5886 53.5333 13.1738 53.2025 13.1032C52.88 13.1234 52.8121 12.8913 52.7018 12.4977Z" fill="#396415"/>
<g opacity="0.68">
<path d="M47.7908 11.2469L47.3753 11.0424C46.8764 10.39 46.5144 8.07634 46.3223 6.33912L46.4793 6.08594C46.7286 8.45222 47.2736 10.3998 47.7908 11.2469Z" fill="#437517"/>
<path d="M47.5885 3.80664L47.3301 4.35196C47.6994 6.61434 48.6526 11.3241 49.5097 12.0642L50.1748 12.3758C49.0515 10.9268 47.9825 6.05928 47.5885 3.80664Z" fill="#437517"/>
<path d="M49.6841 5.01428L49.4531 4.54688C49.5548 5.54335 49.8411 7.76421 50.1737 8.67566C50.3583 10.0681 51.513 11.5191 51.7161 12.376C51.8787 13.0615 51.8947 13.2589 51.8823 13.2719L52.3534 13.5445C52.2056 12.1715 51.5036 10.5842 50.9402 9.53256C50.4896 8.69123 49.915 6.16981 49.6841 5.01428Z" fill="#437517"/>
<path d="M53.8778 9.12409L53.5176 8.80273C53.5637 9.04618 53.6633 9.59149 53.6929 9.8252C53.7299 10.1173 54.0348 11.1203 54.3763 11.3443C54.6497 11.5234 54.7305 12.0421 54.7365 12.2791L54.7551 13.4087L54.9769 13.3016C54.9829 13.0549 54.9952 12.4622 54.9952 12.0649C54.9952 11.5683 54.8013 11.4514 54.3763 10.9061C54.0366 10.4698 53.9024 9.53632 53.8778 9.12409Z" fill="#437517"/>
<path d="M56.6201 11.1777L56.4355 11.2459C56.5401 11.3757 56.7365 11.7308 56.6848 12.1126L56.5556 12.5508L56.7588 12.4242L56.8419 12.0249C56.9158 11.5887 56.7249 11.2784 56.6201 11.1777Z" fill="#437517"/>
<path d="M57.683 11.4123C57.7792 11.1786 57.6432 10.9904 57.5629 10.9255L57.7386 10.8184C57.997 10.8963 57.877 11.4221 57.7847 11.6753L57.5352 11.8019C57.5446 11.7694 57.5871 11.646 57.683 11.4123Z" fill="#437517"/>
<path d="M58.7087 10.9632C58.79 10.7217 58.6749 10.5314 58.6073 10.4665L58.8196 10.3789C59.0191 10.4412 58.946 10.8723 58.8844 11.08L58.5782 11.2603C58.5748 11.2636 58.5721 11.265 58.5703 11.265L58.5782 11.2603C58.5973 11.2422 58.64 11.1675 58.7087 10.9632Z" fill="#437517"/>
<path d="M59.6127 10.6328C59.8418 10.2978 59.7021 10.0777 59.6035 10.0095L59.7883 9.93164C59.8866 9.94786 60.0599 10.0407 59.9637 10.2822L59.8898 10.438L59.6127 10.6328Z" fill="#437517"/>
<path d="M58.653 11.3242L58.459 11.4605C58.5298 11.5871 58.7269 11.8481 58.9484 11.8792L59.3086 11.8111C59.0058 11.7176 58.7452 11.4476 58.653 11.3242Z" fill="#437517"/>
<path d="M59.3272 10.9062L59.1055 11.0621C59.2994 11.2925 59.7317 11.7496 59.9092 11.695C60.0864 11.6405 60.2046 11.5425 60.2416 11.5003C59.8426 11.547 59.4656 11.1237 59.3272 10.9062Z" fill="#437517"/>
<path d="M60.0373 10.4961L59.8711 10.6032C59.9419 10.7103 60.1167 10.9421 60.2496 11.0122C60.4161 11.0998 60.5083 11.0414 60.5267 11.0219C60.5453 11.0025 60.6284 10.9245 60.5823 10.8661C60.4491 10.8428 60.1634 10.6097 60.0373 10.4961Z" fill="#437517"/>
</g>
<path d="M48.9185 0.45214C48.7677 0.370035 48.7677 0.554772 48.7866 0.657404C48.5667 1.62463 48.4301 3.93415 49.6446 5.43444C51.1624 7.30979 52.7559 8.15885 53.0765 8.51338C53.3971 8.86794 55.0658 10.1088 55.3864 10.7153L55.4805 10.9019C55.512 10.9983 55.641 11.1874 55.9049 11.1725C56.235 11.1538 56.5364 11.2098 57.5548 10.8273C58.5729 10.4447 60.2889 9.67964 60.3644 9.64234C60.4399 9.60501 60.9615 9.35309 60.9741 9.31579C60.9807 8.63297 60.7704 8.21893 60.4399 7.48706C60.0815 6.69402 58.375 4.16554 57.4793 2.86866C56.5836 1.57176 56.047 0.283397 56.0281 0.124784C56.0132 -0.00210536 55.9238 -0.0081431 55.9049 0.0136272C55.0941 0.648077 53.9533 0.704058 52.2846 0.7787C50.6155 0.853339 49.1072 0.554772 48.9185 0.45214Z" fill="#436E1F"/>
<path d="M54.0913 7.66743C53.5494 6.88159 54.2771 6.41785 54.7086 6.28419C54.9859 6.19399 55.6211 5.95142 55.9435 5.70286C56.3464 5.39211 56.9811 4.85086 56.9811 4.11914C57.7184 4.39981 58.876 6.5348 58.9534 6.84552C59.0068 7.06127 58.919 7.3166 58.8333 7.43688C58.7617 7.52377 58.5914 7.71954 58.4815 7.80776C58.3719 7.89596 57.8298 8.27218 57.5727 8.44926C57.2012 8.61632 56.3705 8.97849 56.0206 9.09076C55.5833 9.23107 54.8546 8.66976 54.6402 8.33899C54.4687 8.07439 54.2027 7.78102 54.0913 7.66743Z" fill="#46771E"/>
<path opacity="0.66" d="M51.7951 6.97449C50.9856 6.56404 50.2729 6.10693 50.0176 5.92969C51.5209 6.48007 54.2524 7.94466 55.1609 8.61632C55.9096 8.9671 57.1652 10.2209 57.4677 10.8925L57.1181 10.9858C57.0423 10.8365 56.2417 10.0156 55.8511 9.62382L54.3572 8.45775C53.8403 8.13435 52.6043 7.38496 51.7951 6.97449Z" fill="#497C1D"/>
<g opacity="0.66">
<path d="M48.7012 1.9043L48.7106 2.65866C49.6546 3.36644 51.7792 4.92359 52.9493 5.56433C54.4123 6.36527 56.0161 7.35245 56.5036 7.84603C56.9915 8.33963 58.5011 10.1836 58.5764 10.4257L58.989 10.2488C58.595 9.32682 56.6069 6.94266 53.5027 5.34081C51.0195 4.05934 49.3015 2.51585 48.7012 1.9043Z" fill="#497C1D"/>
<path d="M52.5749 3.02028C51.9748 2.52111 50.8558 1.32221 50.3711 0.785156L50.7368 0.803783C51.0652 1.12663 51.7872 1.83008 52.0498 2.06105C52.3125 2.29201 53.1471 3.04512 53.5314 3.39282C53.9348 3.73741 54.76 4.44332 54.835 4.51039C54.9289 4.59421 56.3074 5.79559 56.3543 5.83284C56.4013 5.87009 57.8268 7.05284 57.9112 7.15529C57.9785 7.23724 58.3392 7.58059 58.5112 7.742C59.134 8.3604 59.7304 9.39042 59.9086 9.82814L59.6179 9.92128C59.5584 9.81573 59.3534 9.46119 59.0082 8.88753C58.577 8.17043 57.4047 7.08079 57.0765 6.82002C56.8139 6.61141 55.0665 5.21198 54.2255 4.53832C53.9254 4.2403 53.1752 3.51948 52.5749 3.02028Z" fill="#497C1D"/>
<path d="M54.8343 0.5625L54.6094 0.618378C54.9032 1.03436 55.5995 1.93525 56.0346 2.21091C56.5785 2.55549 56.7568 3.0491 56.8692 3.29123C56.9594 3.48495 57.1133 3.67616 57.1788 3.74756L57.7322 4.34362C57.9647 4.61181 58.895 5.45186 59.3546 5.76849L59.0733 5.34941C58.9826 5.30284 58.7262 5.12216 58.4261 4.77202C58.051 4.3343 57.404 3.88726 57.0569 3.10496C56.7099 2.32267 56.2787 2.05259 56.1285 1.96877C55.9785 1.88495 55.8097 1.68007 55.6784 1.56831C55.5732 1.47891 55.072 0.860519 54.8343 0.5625Z" fill="#497C1D"/>
</g>
<path d="M53.7706 3.09086L53.5352 2.79122L54.0731 2.64141L55.4605 2.22656C55.5615 2.28034 55.8071 2.42016 55.9819 2.54923C56.1568 2.67829 56.1725 2.9641 56.1583 3.09086L55.1662 3.94362C54.942 4.07038 54.4786 4.25707 54.418 3.98972C54.3575 3.72236 53.9611 3.27908 53.7706 3.09086Z" fill="#436E1F"/>
<path d="M53.7637 3.05469C53.9233 3.35431 54.1841 3.76919 54.4111 3.95357C54.3857 3.34278 54.0581 3.10078 53.7637 3.05469Z" fill="black"/>
<path d="M55.73 2.39825C55.629 2.37059 55.5685 2.29837 55.5488 2.27148C55.6123 2.27148 55.7163 2.29684 55.7635 2.30606C55.8225 2.31758 56.3017 2.62872 56.1334 3.04358C56.1672 2.68634 55.856 2.43282 55.73 2.39825Z" fill="black"/>
<path d="M54.2921 3.82756L52.459 4.36917L53.9474 3.2168C54.3039 3.29053 54.3257 3.6547 54.2921 3.82756Z" fill="#F69330"/>
<path d="M56.1161 2.85962C56.0558 2.57384 55.7882 2.41788 55.6621 2.37563L57.6549 1.37305L56.1161 2.85962Z" fill="#F69330"/>
<path opacity="0.63" d="M52.8514 0.8125H52.334C52.5128 1.09897 52.8779 1.68499 52.9081 1.7373C52.9458 1.80269 53.4352 2.41923 54.094 2.64341C54.7527 2.86761 55.4117 3.7457 55.6374 4.11003C55.8634 4.47435 56.1835 4.77326 56.3059 4.92273C56.4036 5.04229 57.2564 5.78215 57.6705 6.13713C58.3104 6.49584 60.1928 8.11751 60.7858 8.86482L60.6636 8.33236C60.2494 7.90887 59.041 6.8153 58.5741 6.50143C57.9906 6.10909 56.7481 4.84799 56.6634 4.75459C56.5788 4.66117 56.1929 4.31554 55.9575 3.76439C55.7224 3.21325 54.8282 2.53132 54.1881 2.26042C53.6761 2.0437 53.0837 1.20484 52.8514 0.8125Z" fill="#497C1D"/>
<path d="M37.2286 12.9568H39.6947C40.198 12.9568 41.1795 13.36 41.1795 22.432C41.1795 29.8409 38.9146 34.3013 33.5293 34.3013C28.7983 34.3013 25.9043 30.6473 25.9043 23.1124C25.9043 15.0484 26.8606 12.9568 27.1877 12.9568H30.6857C30.9373 12.9568 31.2393 12.9568 31.2393 13.2844C31.2393 13.864 29.981 16.5352 29.981 22.3312C29.981 28.0517 32.0446 29.8157 33.5293 29.8157C34.7876 29.8157 37.5054 29.4881 37.5054 22.5832C37.5054 16.0312 36.2723 13.738 36.2723 13.2844C36.2723 12.8812 37.0021 12.9568 37.2286 12.9568ZM53.1039 33.9233H50.9397C50.6126 33.9233 50.059 33.9989 50.059 33.5201C50.059 33.2681 51.3424 29.9165 51.3424 24.8008C51.3424 23.0116 51.1914 20.7688 49.4802 20.7688C48.5239 20.7688 46.561 21.3988 46.561 26.3885C46.561 29.4125 47.2908 33.2933 47.2908 33.5957C47.2908 33.9485 46.863 33.9233 46.6114 33.9233H44.4724C43.5412 33.9233 43.1638 34.3517 43.1638 27.6989C43.1638 16.2832 44.0445 16.9888 45.9823 16.9888C46.863 16.9888 47.7689 16.8628 47.7689 17.4424C47.7689 17.6944 47.5425 17.9968 47.5425 18.3496C47.5425 18.6016 47.6683 18.8284 47.9199 18.8284C48.3477 18.8284 49.5053 17.7952 51.1159 17.7952C51.8205 17.7952 54.7397 17.896 54.7397 24.5236C54.7397 34.4273 53.9596 33.9233 53.1039 33.9233ZM64.2209 28.9589V27.8501C64.2209 26.9681 64.3719 25.9096 63.1639 25.9096C61.6792 25.9096 60.119 27.1697 60.119 28.7069C60.119 30.1181 61.352 30.9497 62.6858 30.9497C64.1705 30.9497 64.2209 30.1937 64.2209 28.9589ZM56.7217 29.2865C56.7217 26.1112 59.8421 23.9188 62.6606 23.44C63.3904 23.314 63.9692 23.188 63.9692 22.3564C63.9692 21.0712 62.6355 20.3908 61.5282 20.3908C58.9614 20.3908 59.3388 22.558 58.7852 22.558C57.9799 22.558 57.0992 21.5752 57.0992 20.4916C57.0992 18.6268 59.1879 17.4172 61.503 17.4172C62.3083 17.4172 65.7559 17.392 67.0393 20.92C67.5678 22.3816 67.6181 29.8409 67.6181 30.7229C67.6181 31.8317 67.8195 32.4869 67.8195 33.3437C67.8195 33.8729 65.4539 33.9233 63.2143 33.9233C57.1495 33.9233 56.7217 30.7985 56.7217 29.2865ZM78.7041 17.7952H80.365C81.2458 17.7952 81.422 17.7952 81.422 19.2316C81.422 29.8157 75.9611 34.3013 75.1307 34.3013C74.5519 34.3013 69.4937 30.0677 69.4937 18.5764C69.4937 17.8456 69.5944 17.7952 70.2738 17.7952H72.2116C72.5639 17.7952 73.2936 17.6692 73.2936 18.1984C73.2936 18.778 73.1678 19.3072 73.1678 20.416C73.1678 26.6153 75.0049 29.0597 75.5837 29.0597C76.4644 29.0597 78.1002 25.6072 78.1002 20.6932C78.1002 19.8112 77.9492 19.1056 77.9492 18.3244C77.9492 17.7448 78.2008 17.7952 78.7041 17.7952ZM91.3527 17.7952H93.6931C94.75 17.7952 94.7752 23.0872 94.7752 25.4812C94.7752 34.7297 94.1209 34.3013 92.309 34.3013C89.6667 34.3013 91.6799 32.8901 90.2455 32.8901C90.019 32.8901 89.4402 33.4193 88.9872 33.7217C88.5342 33.9989 87.9554 34.3013 87.125 34.3013C85.0363 34.3013 83.0986 32.9909 83.0986 25.7836C83.0986 25.3552 83.2747 17.7952 84.3317 17.7952H86.6468C86.974 17.7952 87.6535 17.6692 87.6535 18.1732C87.6535 18.5512 86.4959 21.0712 86.4959 25.834C86.4959 27.2453 86.4707 31.0757 88.6349 31.0757C89.4653 31.0757 91.3779 30.8237 91.3779 25.4056C91.3779 22.3816 90.4971 18.5008 90.4971 18.0976C90.4971 17.77 91.0759 17.7952 91.3527 17.7952Z" fill="#FF8811"/>
<path d="M65.8982 39.955H65.5312C64.7899 39.955 64.5 39.4221 64.5 38.7863C64.5 37.8418 65.0285 36.7871 65.7147 36.7871C66.401 36.7871 66.9295 37.8418 66.9295 38.7863C66.9295 39.4221 66.6396 39.955 65.8982 39.955ZM65.7147 39.3008C66.1037 39.3008 66.335 39.1354 66.335 38.7055C66.335 37.8933 65.9606 37.3825 65.7147 37.3825C65.4689 37.3825 65.0945 37.8933 65.0945 38.7055C65.0945 39.1354 65.3257 39.3008 65.7147 39.3008ZM67.9128 38.2571C68.0375 38.2571 68.6908 37.93 68.6908 37.5919C68.6908 37.3604 68.4742 37.2759 68.2761 37.2759C67.9421 37.2759 67.7953 37.3972 67.799 38.0329C67.799 38.1101 67.8027 38.2571 67.9128 38.2571ZM67.4577 36.8422H68.4302C69.1128 36.8422 69.2853 37.2171 69.2853 37.5295C69.2853 38.1175 68.7348 38.2975 68.7348 38.4004C68.7348 38.5033 69.3954 38.9848 69.3954 39.8521C69.3954 39.8925 69.3807 39.8998 69.3036 39.8998H68.8889C68.8229 39.8998 68.7091 39.9109 68.7091 39.8521C68.7091 39.4368 68.4155 38.6908 68.2027 38.6908C68.0926 38.6908 67.8247 38.8414 67.8247 39.0472C67.8247 39.3265 67.9605 39.83 67.9605 39.8557C67.9605 39.9182 67.8687 39.8998 67.832 39.8998H67.4063C67.3146 39.8998 67.2045 39.9697 67.2045 38.5915C67.2045 36.7761 67.3953 36.8422 67.4577 36.8422ZM70.7939 39.8998H69.8434C69.7516 39.8998 69.6415 39.9697 69.6415 38.5915C69.6415 36.7761 69.8324 36.8422 69.8948 36.8422H70.5186C70.9847 36.8422 71.8251 37.3531 71.8251 38.7312C71.8251 39.367 71.5352 39.8998 70.7939 39.8998ZM70.214 37.9815V38.507C70.214 39.3339 70.4563 39.4294 70.6618 39.4294C70.8599 39.4294 71.2306 39.242 71.2306 38.5805C71.2306 37.6728 70.7609 37.2759 70.5223 37.2759C70.2654 37.2759 70.214 37.75 70.214 37.9815ZM73.9387 39.8998H72.2542C72.0597 39.9072 72.1185 39.7786 72.1001 39.0325C72.1001 38.5401 72.302 36.8422 72.4084 36.8422H73.8543C73.8984 36.8422 74.0305 36.8312 74.0305 36.9047C74.0305 36.9341 73.7956 37.4486 73.7479 37.4486C73.6855 37.4486 73.5754 37.2759 73.2158 37.2759C72.9625 37.2759 72.6946 37.4266 72.6946 37.7794C72.6946 37.8565 72.7093 37.9888 72.8121 37.9888C72.9295 37.9888 73.1901 37.8161 73.4983 37.8161C73.5424 37.8161 73.6635 37.8308 73.6635 37.8933C73.6635 37.897 73.458 38.496 73.4139 38.496C73.3772 38.496 73.2378 38.4225 73.0947 38.4225C72.9075 38.4225 72.6359 38.5585 72.6359 38.9223C72.6359 39.2163 72.7901 39.4294 73.0983 39.4294C73.4616 39.4294 73.6855 39.1869 73.7736 39.1869C73.8286 39.1869 74.0745 39.808 74.0745 39.8447C74.0745 39.9145 73.9828 39.8998 73.9387 39.8998ZM74.998 38.2571C75.1228 38.2571 75.776 37.93 75.776 37.5919C75.776 37.3604 75.5595 37.2759 75.3613 37.2759C75.0274 37.2759 74.8806 37.3972 74.8843 38.0329C74.8843 38.1101 74.8879 38.2571 74.998 38.2571ZM74.543 36.8422H75.5155C76.1981 36.8422 76.3706 37.2171 76.3706 37.5295C76.3706 38.1175 75.8201 38.2975 75.8201 38.4004C75.8201 38.5033 76.4807 38.9848 76.4807 39.8521C76.4807 39.8925 76.466 39.8998 76.3889 39.8998H75.9742C75.9082 39.8998 75.7944 39.9109 75.7944 39.8521C75.7944 39.4368 75.5008 38.6908 75.2879 38.6908C75.1778 38.6908 74.9099 38.8414 74.9099 39.0472C74.9099 39.3265 75.0457 39.83 75.0457 39.8557C75.0457 39.9182 74.954 39.8998 74.9173 39.8998H74.4916C74.3998 39.8998 74.2897 39.9697 74.2897 38.5915C74.2897 36.7761 74.4806 36.8422 74.543 36.8422ZM80.1291 36.8422H80.4667C80.5621 36.8422 80.6722 36.7871 80.6722 37.456C80.6722 38.8708 79.8391 39.988 79.7694 39.988C79.6079 39.988 79.2336 39.0178 79.1125 39.0178C78.9914 39.0178 78.6171 39.988 78.4556 39.988C78.3859 39.988 77.6666 39.0546 77.6666 37.7941C77.6666 36.7871 77.7363 36.8422 77.8134 36.8422H78.2684C78.3051 36.8422 78.3528 36.8459 78.3528 36.8937C78.3528 36.9304 78.2464 37.1877 78.2464 37.6728C78.2464 38.5768 78.4666 38.9995 78.551 38.9995C78.6648 38.9995 78.9657 38.4776 78.9657 37.603C78.9657 37.1142 78.8997 36.9378 78.8997 36.89C78.8997 36.8459 78.9217 36.8422 78.962 36.8422H79.4391C79.4868 36.8422 79.5309 36.8496 79.5309 36.9047C79.5309 36.9672 79.4611 37.184 79.4611 37.5919C79.4611 38.4115 79.6703 38.9995 79.7804 38.9995C79.9199 38.9995 80.1768 38.3527 80.1768 37.7353C80.1768 37.3457 80.052 36.9451 80.052 36.8974C80.052 36.8386 80.096 36.8422 80.1291 36.8422ZM81.6065 39.8998H81.1587C81.067 39.8998 80.9569 39.9697 80.9569 38.5915C80.9569 36.7761 81.1477 36.8422 81.2101 36.8422H81.6065C81.6542 36.8422 81.7459 36.8312 81.7459 36.901C81.7459 36.9378 81.5514 37.5515 81.5514 38.2608C81.5514 39.2016 81.7349 39.808 81.7349 39.8594C81.7349 39.8962 81.7129 39.8998 81.6799 39.8998H81.6065ZM83.7209 37.614C83.6291 37.614 83.486 37.2832 83.1043 37.2832C82.9208 37.2832 82.6859 37.3751 82.6859 37.5883C82.6859 37.8529 83.0493 37.9558 83.2511 38.0256C84.0218 38.2828 84.1796 38.654 84.1796 39.0031C84.1796 39.4294 83.875 39.955 83.1006 39.955C82.5795 39.955 82.051 39.6757 82.051 39.0913C82.051 38.779 82.2382 38.5952 82.2749 38.5952C82.3373 38.5952 82.2749 39.3412 83.0639 39.3412C83.3429 39.3412 83.5851 39.22 83.5851 38.9921C83.5851 38.7238 83.2548 38.6136 83.0419 38.5474C82.2382 38.2975 82.1501 37.9337 82.1501 37.6213C82.1501 37.3126 82.3593 36.7871 83.1043 36.7871C83.6364 36.7871 84.0144 37.0701 84.0144 37.1767C84.0144 37.2796 83.8236 37.614 83.7209 37.614ZM86.3246 39.8998H84.6402C84.4457 39.9072 84.5044 39.7786 84.486 39.0325C84.486 38.5401 84.6879 36.8422 84.7943 36.8422H86.2402C86.2843 36.8422 86.4164 36.8312 86.4164 36.9047C86.4164 36.9341 86.1815 37.4486 86.1338 37.4486C86.0714 37.4486 85.9613 37.2759 85.6017 37.2759C85.3485 37.2759 85.0806 37.4266 85.0806 37.7794C85.0806 37.8565 85.0952 37.9888 85.198 37.9888C85.3154 37.9888 85.576 37.8161 85.8843 37.8161C85.9283 37.8161 86.0494 37.8308 86.0494 37.8933C86.0494 37.897 85.8439 38.496 85.7999 38.496C85.7632 38.496 85.6237 38.4225 85.4806 38.4225C85.2934 38.4225 85.0218 38.5585 85.0218 38.9223C85.0218 39.2163 85.176 39.4294 85.4842 39.4294C85.8476 39.4294 86.0714 39.1869 86.1595 39.1869C86.2146 39.1869 86.4604 39.808 86.4604 39.8447C86.4604 39.9145 86.3687 39.8998 86.3246 39.8998ZM88.3234 39.8998H86.8298C86.6353 39.9072 86.694 39.7786 86.6757 39.0325C86.6757 38.5401 86.8775 36.8422 86.9839 36.8422H87.5674C87.5931 36.8422 87.6372 36.8496 87.6372 36.9157C87.6372 36.9966 87.2115 37.7867 87.2115 38.801C87.2115 39.3082 87.4317 39.4294 87.6335 39.4294C87.9711 39.4294 88.1766 39.1171 88.2684 39.1171C88.3381 39.1171 88.4812 39.8263 88.4812 39.8447C88.4812 39.9182 88.3675 39.8998 88.3234 39.8998ZM90.0444 36.8422H90.3196C90.4664 36.8422 90.4958 36.8937 90.4958 37.037C90.4958 38.1946 89.5269 38.4335 89.5269 39.5948C89.5269 39.6757 89.5489 39.7528 89.5489 39.83C89.5489 39.9072 89.4352 39.8998 89.3801 39.8998H88.9544C88.8553 39.8998 88.8406 39.7602 88.8406 39.6867C88.8406 39.2457 89.0865 38.926 89.0865 38.801C89.0865 38.6724 88.2498 38.0954 88.2498 37.1215C88.2498 36.8459 88.3012 36.8422 88.4663 36.8422H88.7599C88.8296 36.8422 88.9691 36.8349 88.9691 36.9378C88.9691 36.9672 88.936 37.162 88.936 37.2244C88.936 37.75 89.2957 38.224 89.4058 38.224C89.5122 38.224 89.9306 37.6434 89.9306 37.2061C89.9306 37.0885 89.8976 36.9341 89.8976 36.9047C89.8976 36.8275 89.993 36.8422 90.0444 36.8422ZM92.208 39.955C91.9805 39.955 91.8007 39.7712 91.8007 39.547C91.8007 39.3265 91.9842 39.1465 92.2044 39.1465C92.4356 39.1465 92.6227 39.3229 92.6227 39.5507C92.6227 39.7786 92.4356 39.955 92.208 39.955ZM92.0062 36.8422H92.4943C92.542 36.8422 92.6227 36.8496 92.6227 36.9121C92.6227 36.9709 92.3328 37.4743 92.3328 37.9888C92.3328 38.3563 92.3915 38.7973 92.3915 38.8708C92.3915 38.9076 92.2337 38.9223 92.1346 38.9223C91.9658 38.9223 91.8007 37.7757 91.8007 37.3788C91.8007 36.7761 91.8594 36.8422 92.0062 36.8422ZM93.4015 39.955C93.174 39.955 92.9942 39.7712 92.9942 39.547C92.9942 39.3265 93.1777 39.1465 93.3979 39.1465C93.6291 39.1465 93.8162 39.3229 93.8162 39.5507C93.8162 39.7786 93.6291 39.955 93.4015 39.955ZM93.1997 36.8422H93.6878C93.7355 36.8422 93.8162 36.8496 93.8162 36.9121C93.8162 36.9709 93.5263 37.4743 93.5263 37.9888C93.5263 38.3563 93.585 38.7973 93.585 38.8708C93.585 38.9076 93.4272 38.9223 93.3281 38.9223C93.1593 38.9223 92.9942 37.7757 92.9942 37.3788C92.9942 36.7761 93.0529 36.8422 93.1997 36.8422Z" fill="black"/>
</g>
<defs>
<clipPath id="clip0_1419_211">
<rect width="81" height="42" fill="white" transform="translate(20)"/>
</clipPath>
</defs>
</svg>
