<svg width="21" height="22" viewBox="0 0 21 22" fill="none" xmlns="http://www.w3.org/2000/svg">
<path d="M9.87712 0C7.02564 0.00804341 4.28619 1.09881 2.22458 3.047V1.1C2.22458 0.808262 2.10739 0.528473 1.89879 0.322183C1.6902 0.115892 1.40729 0 1.11229 0C0.817291 0 0.534376 0.115892 0.325782 0.322183C0.117187 0.528473 0 0.808262 0 1.1V6.05C0 6.34174 0.117187 6.62153 0.325782 6.82782C0.534376 7.03411 0.817291 7.15 1.11229 7.15H6.11759C6.41258 7.15 6.6955 7.03411 6.90409 6.82782C7.11269 6.62153 7.22987 6.34174 7.22987 6.05C7.22987 5.75826 7.11269 5.47847 6.90409 5.27218C6.6955 5.06589 6.41258 4.95 6.11759 4.95H3.44809C4.46218 3.89071 5.72662 3.09734 7.12769 2.64125C8.52875 2.18517 10.0225 2.08067 11.4745 2.33717C12.9265 2.59367 14.2913 3.20312 15.4461 4.11069C16.6009 5.01826 17.5094 6.19548 18.0899 7.53646C18.6705 8.87744 18.9049 10.3401 18.772 11.7929C18.6391 13.2457 18.1431 14.643 17.3286 15.8592C16.5142 17.0754 15.4068 18.0722 14.106 18.7601C12.8053 19.448 11.3521 19.8054 9.87712 19.8C9.58212 19.8 9.29921 19.9159 9.09061 20.1222C8.88202 20.3285 8.76483 20.6083 8.76483 20.9C8.76483 21.1917 8.88202 21.4715 9.09061 21.6778C9.29921 21.8841 9.58212 22 9.87712 22C12.8271 22 15.6562 20.8411 17.7422 18.7782C19.8281 16.7153 21 13.9174 21 11C21 8.08262 19.8281 5.28473 17.7422 3.22183C15.6562 1.15893 12.8271 0 9.87712 0ZM9.87712 6.6C9.58212 6.6 9.29921 6.71589 9.09061 6.92218C8.88202 7.12847 8.76483 7.40826 8.76483 7.7V11C8.76483 11.2917 8.88202 11.5715 9.09061 11.7778C9.29921 11.9841 9.58212 12.1 9.87712 12.1H12.1017C12.3967 12.1 12.6796 11.9841 12.8882 11.7778C13.0968 11.5715 13.214 11.2917 13.214 11C13.214 10.7083 13.0968 10.4285 12.8882 10.2222C12.6796 10.0159 12.3967 9.9 12.1017 9.9H10.9894V7.7C10.9894 7.40826 10.8722 7.12847 10.6636 6.92218C10.455 6.71589 10.1721 6.6 9.87712 6.6Z" fill="#1F1F1F"/>
</svg>
