<svg width="31" height="35" viewBox="0 0 31 35" fill="none" xmlns="http://www.w3.org/2000/svg">
<path d="M23.8132 30.533H7.18424C6.32782 30.533 5.50647 30.1489 4.90088 29.4652C4.29529 28.7815 3.95508 27.8541 3.95508 26.8872V8.11263C3.95508 7.1457 4.29529 6.21836 4.90088 5.53464C5.50647 4.85091 6.32782 4.4668 7.18424 4.4668H23.8132C24.6696 4.4668 25.4909 4.85091 26.0965 5.53464C26.7021 6.21836 27.0423 7.1457 27.0423 8.11263V26.8872C27.0423 27.8541 26.7021 28.7815 26.0965 29.4652C25.4909 30.1489 24.6696 30.533 23.8132 30.533ZM7.18424 5.92513C6.67039 5.92513 6.17758 6.1556 5.81423 6.56583C5.45087 6.97607 5.24674 7.53247 5.24674 8.11263V26.8872C5.24674 27.4674 5.45087 28.0238 5.81423 28.434C6.17758 28.8442 6.67039 29.0747 7.18424 29.0747H23.8132C24.327 29.0747 24.8198 28.8442 25.1832 28.434C25.5465 28.0238 25.7507 27.4674 25.7507 26.8872V8.11263C25.7507 7.53247 25.5465 6.97607 25.1832 6.56583C24.8198 6.1556 24.327 5.92513 23.8132 5.92513H7.18424Z" fill="white"/>
<path d="M8.45234 12.0784C8.28175 12.075 8.11873 11.9983 7.99638 11.8641C7.8753 11.7273 7.80729 11.5419 7.80729 11.3485C7.80729 11.1552 7.8753 10.9698 7.99638 10.833C8.11742 10.6967 8.28138 10.6201 8.45234 10.6201H9.75175C9.92216 10.6232 10.0852 10.6993 10.2077 10.833C10.2679 10.9007 10.3156 10.9812 10.3482 11.0698C10.3808 11.1584 10.3976 11.2533 10.3976 11.3493C10.3976 11.5427 10.3295 11.7281 10.2084 11.8649C10.0873 12.0016 9.92304 12.0784 9.75175 12.0784H8.45234ZM8.45234 18.2282C8.28193 18.2251 8.11893 18.149 7.99638 18.0153C7.93623 17.9476 7.88852 17.8671 7.85596 17.7785C7.8234 17.6899 7.80664 17.595 7.80664 17.4991C7.80664 17.4032 7.8234 17.3082 7.85596 17.2196C7.88852 17.131 7.93623 17.0505 7.99638 16.9828C8.11893 16.8491 8.28193 16.773 8.45234 16.7699H9.75175C9.92216 16.773 10.0852 16.8491 10.2077 16.9828C10.2679 17.0505 10.3156 17.131 10.3481 17.2196C10.3807 17.3082 10.3974 17.4032 10.3974 17.4991C10.3974 17.595 10.3807 17.6899 10.3481 17.7785C10.3156 17.8671 10.2679 17.9476 10.2077 18.0153C10.0852 18.149 9.92216 18.2251 9.75175 18.2282H8.45234ZM8.45234 24.3824C8.28175 24.3789 8.11873 24.3023 7.99638 24.168C7.8753 24.0313 7.80729 23.8458 7.80729 23.6525C7.80729 23.4592 7.8753 23.2737 7.99638 23.137C8.11893 23.0033 8.28193 22.9272 8.45234 22.9241H9.75175C9.92216 22.9272 10.0852 23.0033 10.2077 23.137C10.2679 23.2047 10.3156 23.2852 10.3482 23.3737C10.3808 23.4623 10.3976 23.5573 10.3976 23.6532C10.3976 23.8466 10.3295 24.0321 10.2084 24.1688C10.0873 24.3056 9.92304 24.3824 9.75175 24.3824H8.45234ZM13.6319 12.0755C13.4606 12.0755 13.2964 11.9987 13.1752 11.862C13.0541 11.7252 12.9861 11.5397 12.9861 11.3464C12.9861 11.153 13.0541 10.9675 13.1752 10.8308C13.2964 10.694 13.4606 10.6172 13.6319 10.6172H22.5444C22.7157 10.6172 22.88 10.694 23.0011 10.8308C23.1222 10.9675 23.1903 11.153 23.1903 11.3464C23.1903 11.5397 23.1222 11.7252 23.0011 11.862C22.88 11.9987 22.7157 12.0755 22.5444 12.0755H13.6319ZM13.6319 18.2282C13.4606 18.2282 13.2964 18.1514 13.1752 18.0147C13.0541 17.8779 12.9861 17.6924 12.9861 17.4991C12.9861 17.3057 13.0541 17.1202 13.1752 16.9835C13.2964 16.8467 13.4606 16.7699 13.6319 16.7699H22.5444C22.7157 16.7699 22.88 16.8467 23.0011 16.9835C23.1222 17.1202 23.1903 17.3057 23.1903 17.4991C23.1903 17.6924 23.1222 17.8779 23.0011 18.0147C22.88 18.1514 22.7157 18.2282 22.5444 18.2282H13.6319ZM13.6319 24.3795C13.4606 24.3795 13.2964 24.3027 13.1752 24.1659C13.0541 24.0292 12.9861 23.8437 12.9861 23.6503C12.9861 23.4569 13.0541 23.2715 13.1752 23.1347C13.2964 22.998 13.4606 22.9211 13.6319 22.9211H22.5444C22.7157 22.9211 22.88 22.998 23.0011 23.1347C23.1222 23.2715 23.1903 23.4569 23.1903 23.6503C23.1903 23.8437 23.1222 24.0292 23.0011 24.1659C22.88 24.3027 22.7157 24.3795 22.5444 24.3795H13.6319Z" fill="white"/>
</svg>
