<svg width="309" height="160" viewBox="0 0 309 160" fill="none" xmlns="http://www.w3.org/2000/svg">
<path d="M95.9276 34.0327C95.1271 35.9768 96.1897 37.4397 96.821 37.9281C97.5239 38.7619 100.888 41.2516 108.722 44.5395C118.514 48.6493 122.552 51.3296 123.946 52.2588C125.061 53.0021 127.055 52.8068 127.912 52.6162C130.212 51.9014 135.324 50.1717 137.383 48.9709C139.441 47.7702 141.076 47.2794 141.636 47.1841C144.554 46.4931 150.599 45.1256 151.428 45.1828C152.257 45.24 152.821 44.9683 153 44.8254C153.453 44.5038 154.565 43.403 155.394 41.5733C156.431 39.2861 156.467 35.2835 156.073 33.3894C155.68 31.4953 153.429 26.8137 152.607 25.5986C151.785 24.3836 147.675 17.9508 147.354 17.5934C147.032 17.2361 143.887 12.4115 143.458 11.804C143.115 11.3179 141.6 8.90924 140.885 7.76564C140.623 7.27723 139.949 6.05739 139.348 5.08533C138.748 4.11327 137.669 1.39246 137.204 0.153566C135.703 -0.847083 118.406 3.36994 118.514 3.36994C118.621 3.36994 109.401 6.51484 109.293 6.72926C109.208 6.9008 108.567 8.08728 108.257 8.65908C105.898 13.3288 101.067 22.8612 100.609 23.6331C100.037 24.598 96.9283 31.6025 95.9276 34.0327Z" fill="#29400F"/>
<path d="M98.5614 32.0834C100.341 27.5817 106.318 16.9092 109.025 13.0791C108.919 13.8653 109.13 17.6415 110.119 19.178C111.355 21.0987 112.789 23.7943 117.696 27.2312C121.622 29.9808 127.428 34.6443 129.841 36.6323C131.582 38.2048 135.122 41.8484 135.348 43.8432C136.242 43.7758 138.554 43.4725 140.644 42.7986C142.734 42.1247 146.881 40.6084 148.693 39.9345L154.871 37.441C154.391 38.3036 152.624 39.5975 151.8 40.1367C151.094 40.541 149.604 41.4104 149.293 41.653C148.905 41.9562 141.915 44.9551 141.244 45.3258C140.573 45.6964 137.255 47.1116 137.149 47.179C137.043 47.2464 134.854 48.4595 132.277 49.5714C129.699 50.6834 127.44 50.616 126.169 50.6497C124.898 50.6834 123.874 49.841 123.557 49.6388C123.302 49.4771 121.521 48.6279 120.662 48.2236C117.837 46.9544 111.963 44.261 111.059 43.641C109.929 42.866 109.188 42.5964 106.787 41.7877C104.387 40.979 102.515 40.103 100.891 39.1932C99.2674 38.2834 98.3143 37.3736 97.7847 36.3964C97.3611 35.6147 97.6082 34.678 97.7847 34.3073L98.5614 32.0834Z" fill="#325712"/>
<path d="M151.704 40.7147C151.35 40.8493 142.045 45.8941 141.975 45.8941C144.475 45.5354 149.985 44.6497 152.023 43.9771C154.57 43.1363 155.384 38.3268 155.348 38.5286C155.313 38.7304 152.058 40.5802 151.704 40.7147Z" fill="#325712"/>
<path d="M107.57 35.8443C103.868 34.7679 106.416 24.6575 108.153 19.7368C108.552 21.3898 110.437 25.434 114.787 28.3864C119.136 31.3388 121.41 32.7688 122.003 33.1148C123.47 33.9734 126.475 36.0057 126.76 37.2666C127.116 38.8428 126.371 38.7274 125.854 38.4583C124.067 37.0744 119.004 37.0872 116.696 37.2666C115.196 37.241 111.272 36.9206 107.57 35.8443Z" fill="#396415"/>
<path d="M124.753 47.6077C124.417 46.4083 123.017 45.3139 122.359 44.9167C123.125 44.0325 125.241 42.7373 127.116 41.9951C128.572 41.4184 130.697 41.2134 131.258 40.9571L132.145 42.072C133.888 45.076 130.642 47.6474 130.546 47.7999C130.449 47.9537 127.925 50.1833 126.663 49.9142C125.433 49.9911 125.174 49.1069 124.753 47.6077Z" fill="#396415"/>
<g opacity="0.68">
<path d="M106.02 42.8462L104.435 42.0672C102.532 39.5818 101.151 30.7678 100.418 24.1498L101.017 23.1853C101.968 32.1997 104.047 39.6189 106.02 42.8462Z" fill="#437517"/>
<path d="M105.245 14.5049L104.259 16.5823C105.668 25.2009 109.304 43.143 112.574 45.9623L115.111 47.1493C110.826 41.6295 106.748 23.0864 105.245 14.5049Z" fill="#437517"/>
<path d="M113.243 19.1048L112.362 17.3242C112.75 21.1203 113.842 29.5807 115.111 33.0529C115.815 38.3576 120.22 43.8849 120.995 47.1493C121.615 49.7609 121.676 50.5127 121.629 50.5622L123.426 51.6009C122.862 46.3703 120.184 40.3237 118.035 36.3173C116.316 33.1122 114.124 23.5068 113.243 19.1048Z" fill="#437517"/>
<path d="M129.24 34.7593L127.866 33.5351C128.042 34.4625 128.422 36.5399 128.535 37.4302C128.676 38.5431 129.839 42.364 131.142 43.2172C132.185 43.8997 132.493 45.8757 132.516 46.7784L132.587 51.0815L133.433 50.6735C133.456 49.7337 133.503 47.4758 133.503 45.9623C133.503 44.0704 132.763 43.6252 131.142 41.5478C129.846 39.8859 129.334 36.3297 129.24 34.7593Z" fill="#437517"/>
<path d="M139.704 42.5865L139 42.8462C139.399 43.3408 140.148 44.6936 139.951 46.1478L139.458 47.8171L140.233 47.3348L140.55 45.8139C140.832 44.152 140.104 42.9699 139.704 42.5865Z" fill="#437517"/>
<path d="M143.756 43.4768C144.123 42.5865 143.604 41.8693 143.298 41.622L143.968 41.214C144.954 41.5108 144.496 43.5139 144.144 44.4784L143.192 44.9607C143.228 44.837 143.39 44.3671 143.756 43.4768Z" fill="#437517"/>
<path d="M147.667 41.7704C147.977 40.8504 147.538 40.1258 147.28 39.8785L148.09 39.5447C148.851 39.7821 148.572 41.4242 148.337 42.2156L147.169 42.9024C147.156 42.915 147.146 42.9204 147.139 42.9204L147.169 42.9024C147.242 42.8334 147.405 42.549 147.667 41.7704Z" fill="#437517"/>
<path d="M151.12 40.5092C151.994 39.2331 151.461 38.3947 151.085 38.135L151.79 37.8383C152.165 37.9001 152.826 38.2537 152.459 39.1737L152.177 39.7672L151.12 40.5092Z" fill="#437517"/>
<path d="M147.456 43.143L146.716 43.6623C146.986 44.1446 147.738 45.1387 148.583 45.2574L149.957 44.9978C148.802 44.6417 147.808 43.6129 147.456 43.143Z" fill="#437517"/>
<path d="M150.028 41.5478L149.182 42.1414C149.922 43.0193 151.571 44.7604 152.248 44.5526C152.924 44.3449 153.375 43.9715 153.516 43.8107C151.994 43.9888 150.556 42.3763 150.028 41.5478Z" fill="#437517"/>
<path d="M152.741 39.9898L152.107 40.3979C152.377 40.8059 153.044 41.6888 153.551 41.9559C154.186 42.2898 154.538 42.0672 154.608 41.993C154.679 41.9188 154.996 41.622 154.82 41.3995C154.312 41.3104 153.222 40.4226 152.741 39.9898Z" fill="#437517"/>
</g>
<path d="M110.316 1.7227C109.741 1.40992 109.741 2.11368 109.813 2.50466C108.974 6.18933 108.453 14.9875 113.086 20.7029C118.876 27.8471 124.955 31.0816 126.178 32.4322C127.401 33.7829 133.767 38.5101 134.99 40.8204L135.349 41.5313C135.469 41.8986 135.961 42.6189 136.968 42.5621C138.227 42.491 139.377 42.7043 143.262 41.247C147.146 39.7897 153.692 36.8751 153.98 36.733C154.268 36.5908 156.258 35.6311 156.306 35.4889C156.331 32.8878 155.529 31.3105 154.268 28.5224C152.901 25.5012 146.391 15.869 142.974 10.9285C139.557 5.98792 137.51 1.07987 137.438 0.475632C137.381 -0.00775846 137.04 -0.0307595 136.968 0.0521751C133.875 2.46913 129.523 2.68239 123.157 2.96673C116.79 3.25108 111.036 2.11368 110.316 1.7227Z" fill="#436E1F"/>
<path d="M130.05 29.2121C127.983 26.2184 130.759 24.4518 132.405 23.9426C133.463 23.599 135.886 22.6749 137.116 21.7279C138.653 20.5442 141.074 18.4823 141.074 15.6948C143.887 16.764 148.303 24.8972 148.598 26.081C148.802 26.9029 148.467 27.8756 148.14 28.3338C147.867 28.6648 147.217 29.4106 146.798 29.7467C146.38 30.0827 144.312 31.5159 143.331 32.1905C141.914 32.8269 138.745 34.2066 137.41 34.6342C135.742 35.1688 132.962 33.0305 132.144 31.7704C131.49 30.7624 130.475 29.6448 130.05 29.2121Z" fill="#46771E"/>
<path opacity="0.66" d="M121.289 26.5705C118.201 25.0069 115.482 23.2655 114.508 22.5903C120.243 24.687 130.663 30.2664 134.129 32.8252C136.985 34.1614 141.775 38.9376 142.929 41.4963L141.595 41.8517C141.306 41.2831 138.252 38.1558 136.762 36.6632L131.063 32.221C129.091 30.989 124.376 28.1342 121.289 26.5705Z" fill="#497C1D"/>
<g opacity="0.66">
<path d="M109.492 7.24902L109.528 10.1228C113.129 12.8191 121.234 18.7511 125.698 21.192C131.279 24.2431 137.397 28.0038 139.257 29.8842C141.118 31.7645 146.877 38.7893 147.164 39.7117L148.738 39.0376C147.235 35.5253 139.651 26.4428 127.809 20.3405C118.336 15.4587 111.782 9.57876 109.492 7.24902Z" fill="#497C1D"/>
<path d="M124.267 11.5064C121.978 9.60478 117.709 5.03753 115.86 2.99162L117.255 3.06257C118.508 4.29249 121.262 6.97229 122.264 7.85215C123.266 8.73201 126.45 11.601 127.916 12.9256C129.455 14.2382 132.603 16.9275 132.889 17.183C133.247 17.5023 138.506 22.079 138.685 22.2209C138.864 22.3628 144.302 26.8685 144.624 27.2588C144.881 27.571 146.257 28.879 146.913 29.4939C149.289 31.8497 151.564 35.7736 152.244 37.4411L151.135 37.7959C150.908 37.3938 150.126 36.0432 148.809 33.8578C147.164 31.1259 142.692 26.975 141.44 25.9816C140.438 25.1869 133.772 19.8557 130.564 17.2894C129.419 16.1541 126.557 13.4081 124.267 11.5064Z" fill="#497C1D"/>
<path d="M132.889 2.14014L132.031 2.35301C133.152 3.93771 135.808 7.36964 137.468 8.4198C139.543 9.7325 140.223 11.6129 140.652 12.5353C140.996 13.2732 141.583 14.0017 141.833 14.2737L143.944 16.5443C144.831 17.5661 148.38 20.7663 150.133 21.9725L149.06 20.376C148.714 20.1986 147.736 19.5103 146.591 18.1763C145.16 16.5089 142.692 14.8059 141.368 11.8257C140.044 8.84554 138.399 7.81667 137.826 7.49737C137.254 7.17806 136.61 6.39754 136.109 5.9718C135.708 5.63121 133.796 3.27544 132.889 2.14014Z" fill="#497C1D"/>
</g>
<path d="M128.832 11.772L127.934 10.6306L129.986 10.0599L135.279 8.47949C135.664 8.68436 136.601 9.21702 137.268 9.70871C137.935 10.2004 137.995 11.2891 137.941 11.772L134.156 15.0207C133.301 15.5036 131.533 16.2148 131.302 15.1963C131.071 14.1778 129.559 12.4891 128.832 11.772Z" fill="#436E1F"/>
<path d="M128.799 11.6405C129.408 12.7819 130.403 14.3623 131.269 15.0648C131.172 12.738 129.922 11.8161 128.799 11.6405Z" fill="black"/>
<path d="M136.305 9.13818C135.92 9.03282 135.689 8.75771 135.614 8.65527C135.856 8.65527 136.253 8.75185 136.433 8.78698C136.658 8.83088 138.486 10.0162 137.844 11.5966C137.973 10.2357 136.786 9.26988 136.305 9.13818Z" fill="black"/>
<path d="M130.819 14.5818L123.826 16.6451L129.504 12.255C130.864 12.536 130.947 13.9233 130.819 14.5818Z" fill="#F69330"/>
<path d="M137.779 10.8941C137.549 9.80539 136.528 9.21127 136.047 9.05031L143.649 5.23096L137.779 10.8941Z" fill="#F69330"/>
<path opacity="0.63" d="M125.32 3.09131H123.346C124.028 4.18263 125.421 6.41508 125.536 6.61437C125.68 6.86347 127.547 9.21218 130.06 10.0663C132.573 10.9203 135.087 14.2655 135.948 15.6533C136.81 17.0412 138.031 18.18 138.498 18.7493C138.871 19.2048 142.124 22.0233 143.704 23.3756C146.145 24.7421 153.326 30.9199 155.588 33.7668L155.122 31.7384C153.542 30.1251 148.932 25.9592 147.151 24.7635C144.925 23.2688 140.185 18.4647 139.862 18.1088C139.539 17.7529 138.067 16.4362 137.169 14.3366C136.272 12.237 132.861 9.63921 130.419 8.60721C128.466 7.7816 126.206 4.58594 125.32 3.09131Z" fill="#497C1D"/>
<path d="M65.7274 49.3555H75.1354C77.0554 49.3555 80.7994 50.8915 80.7994 85.4515C80.7994 113.676 72.1594 130.668 51.6154 130.668C33.5674 130.668 22.5274 116.748 22.5274 88.0435C22.5274 57.3235 26.1754 49.3555 27.4234 49.3555H40.7674C41.7274 49.3555 42.8794 49.3555 42.8794 50.6035C42.8794 52.8115 38.0794 62.9875 38.0794 85.0675C38.0794 106.86 45.9514 113.58 51.6154 113.58C56.4154 113.58 66.7834 112.332 66.7834 86.0275C66.7834 61.0675 62.0794 52.3315 62.0794 50.6035C62.0794 49.0675 64.8634 49.3555 65.7274 49.3555ZM126.289 129.228H118.033C116.785 129.228 114.673 129.516 114.673 127.692C114.673 126.732 119.569 113.964 119.569 94.4755C119.569 87.6595 118.993 79.1155 112.465 79.1155C108.817 79.1155 101.329 81.5155 101.329 100.524C101.329 112.044 104.113 126.828 104.113 127.98C104.113 129.324 102.481 129.228 101.521 129.228H93.3611C89.8091 129.228 88.3691 130.86 88.3691 105.516C88.3691 62.0275 91.7291 64.7155 99.1211 64.7155C102.481 64.7155 105.937 64.2355 105.937 66.4435C105.937 67.4035 105.073 68.5555 105.073 69.8995C105.073 70.8595 105.553 71.7235 106.513 71.7235C108.145 71.7235 112.561 67.7875 118.705 67.7875C121.393 67.7875 132.529 68.1715 132.529 93.4195C132.529 131.148 129.553 129.228 126.289 129.228ZM168.698 110.316V106.092C168.698 102.732 169.274 98.6995 164.666 98.6995C159.002 98.6995 153.05 103.5 153.05 109.356C153.05 114.732 157.754 117.9 162.842 117.9C168.506 117.9 168.698 115.02 168.698 110.316ZM140.09 111.564C140.09 99.4675 151.994 91.1155 162.746 89.2915C165.53 88.8115 167.738 88.3315 167.738 85.1635C167.738 80.2675 162.65 77.6755 158.426 77.6755C148.634 77.6755 150.074 85.9315 147.962 85.9315C144.89 85.9315 141.53 82.1875 141.53 78.0595C141.53 70.9555 149.498 66.3475 158.33 66.3475C161.402 66.3475 174.554 66.2515 179.45 79.6915C181.466 85.2595 181.658 113.676 181.658 117.036C181.658 121.26 182.426 123.756 182.426 127.02C182.426 129.036 173.402 129.228 164.858 129.228C141.722 129.228 140.09 117.324 140.09 111.564ZM223.949 67.7875H230.285C233.645 67.7875 234.317 67.7875 234.317 73.2595C234.317 113.58 213.485 130.668 210.317 130.668C208.109 130.668 188.813 114.54 188.813 70.7635C188.813 67.9795 189.197 67.7875 191.789 67.7875H199.181C200.525 67.7875 203.309 67.3075 203.309 69.3235C203.309 71.5315 202.829 73.5475 202.829 77.7715C202.829 101.388 209.837 110.7 212.045 110.7C215.405 110.7 221.645 97.5475 221.645 78.8275C221.645 75.4675 221.069 72.7795 221.069 69.8035C221.069 67.5955 222.029 67.7875 223.949 67.7875ZM272.201 67.7875H281.129C285.161 67.7875 285.257 87.9475 285.257 97.0675C285.257 132.3 282.761 130.668 275.849 130.668C265.769 130.668 273.449 125.292 267.977 125.292C267.113 125.292 264.905 127.308 263.177 128.46C261.449 129.516 259.241 130.668 256.073 130.668C248.105 130.668 240.713 125.676 240.713 98.2195C240.713 96.5875 241.385 67.7875 245.417 67.7875H254.249C255.497 67.7875 258.089 67.3075 258.089 69.2275C258.089 70.6675 253.673 80.2675 253.673 98.4115C253.673 103.788 253.577 118.38 261.833 118.38C265.001 118.38 272.297 117.42 272.297 96.7795C272.297 85.2595 268.937 70.4755 268.937 68.9395C268.937 67.6915 271.145 67.7875 272.201 67.7875Z" fill="#FF8811"/>
<path d="M175.094 152.21H173.694C170.866 152.21 169.76 150.18 169.76 147.758C169.76 144.16 171.776 140.142 174.394 140.142C177.012 140.142 179.028 144.16 179.028 147.758C179.028 150.18 177.922 152.21 175.094 152.21ZM174.394 149.718C175.878 149.718 176.76 149.088 176.76 147.45C176.76 144.356 175.332 142.41 174.394 142.41C173.456 142.41 172.028 144.356 172.028 147.45C172.028 149.088 172.91 149.718 174.394 149.718ZM182.779 145.742C183.255 145.742 185.747 144.496 185.747 143.208C185.747 142.326 184.921 142.004 184.165 142.004C182.891 142.004 182.331 142.466 182.345 144.888C182.345 145.182 182.359 145.742 182.779 145.742ZM181.043 140.352H184.753C187.357 140.352 188.015 141.78 188.015 142.97C188.015 145.21 185.915 145.896 185.915 146.288C185.915 146.68 188.435 148.514 188.435 151.818C188.435 151.972 188.379 152 188.085 152H186.503C186.251 152 185.817 152.042 185.817 151.818C185.817 150.236 184.697 147.394 183.885 147.394C183.465 147.394 182.443 147.968 182.443 148.752C182.443 149.816 182.961 151.734 182.961 151.832C182.961 152.07 182.611 152 182.471 152H180.847C180.497 152 180.077 152.266 180.077 147.016C180.077 140.1 180.805 140.352 181.043 140.352ZM193.77 152H190.144C189.794 152 189.374 152.266 189.374 147.016C189.374 140.1 190.102 140.352 190.34 140.352H192.72C194.498 140.352 197.704 142.298 197.704 147.548C197.704 149.97 196.598 152 193.77 152ZM191.558 144.692V146.694C191.558 149.844 192.482 150.208 193.266 150.208C194.022 150.208 195.436 149.494 195.436 146.974C195.436 143.516 193.644 142.004 192.734 142.004C191.754 142.004 191.558 143.81 191.558 144.692ZM205.767 152H199.341C198.599 152.028 198.823 151.538 198.753 148.696C198.753 146.82 199.523 140.352 199.929 140.352H205.445C205.613 140.352 206.117 140.31 206.117 140.59C206.117 140.702 205.221 142.662 205.039 142.662C204.801 142.662 204.381 142.004 203.009 142.004C202.043 142.004 201.021 142.578 201.021 143.922C201.021 144.216 201.077 144.72 201.469 144.72C201.917 144.72 202.911 144.062 204.087 144.062C204.255 144.062 204.717 144.118 204.717 144.356C204.717 144.37 203.933 146.652 203.765 146.652C203.625 146.652 203.093 146.372 202.547 146.372C201.833 146.372 200.797 146.89 200.797 148.276C200.797 149.396 201.385 150.208 202.561 150.208C203.947 150.208 204.801 149.284 205.137 149.284C205.347 149.284 206.285 151.65 206.285 151.79C206.285 152.056 205.935 152 205.767 152ZM209.808 145.742C210.284 145.742 212.776 144.496 212.776 143.208C212.776 142.326 211.95 142.004 211.194 142.004C209.92 142.004 209.36 142.466 209.374 144.888C209.374 145.182 209.388 145.742 209.808 145.742ZM208.072 140.352H211.782C214.386 140.352 215.044 141.78 215.044 142.97C215.044 145.21 212.944 145.896 212.944 146.288C212.944 146.68 215.464 148.514 215.464 151.818C215.464 151.972 215.408 152 215.114 152H213.532C213.28 152 212.846 152.042 212.846 151.818C212.846 150.236 211.726 147.394 210.914 147.394C210.494 147.394 209.472 147.968 209.472 148.752C209.472 149.816 209.99 151.734 209.99 151.832C209.99 152.07 209.64 152 209.5 152H207.876C207.526 152 207.106 152.266 207.106 147.016C207.106 140.1 207.834 140.352 208.072 140.352ZM229.382 140.352H230.67C231.034 140.352 231.454 140.142 231.454 142.69C231.454 148.08 228.276 152.336 228.01 152.336C227.394 152.336 225.966 148.64 225.504 148.64C225.042 148.64 223.614 152.336 222.998 152.336C222.732 152.336 219.988 148.78 219.988 143.978C219.988 140.142 220.254 140.352 220.548 140.352H222.284C222.424 140.352 222.606 140.366 222.606 140.548C222.606 140.688 222.2 141.668 222.2 143.516C222.2 146.96 223.04 148.57 223.362 148.57C223.796 148.57 224.944 146.582 224.944 143.25C224.944 141.388 224.692 140.716 224.692 140.534C224.692 140.366 224.776 140.352 224.93 140.352H226.75C226.932 140.352 227.1 140.38 227.1 140.59C227.1 140.828 226.834 141.654 226.834 143.208C226.834 146.33 227.632 148.57 228.052 148.57C228.584 148.57 229.564 146.106 229.564 143.754C229.564 142.27 229.088 140.744 229.088 140.562C229.088 140.338 229.256 140.352 229.382 140.352ZM235.018 152H233.31C232.96 152 232.54 152.266 232.54 147.016C232.54 140.1 233.268 140.352 233.506 140.352H235.018C235.2 140.352 235.55 140.31 235.55 140.576C235.55 140.716 234.808 143.054 234.808 145.756C234.808 149.34 235.508 151.65 235.508 151.846C235.508 151.986 235.424 152 235.298 152H235.018ZM243.084 143.292C242.734 143.292 242.188 142.032 240.732 142.032C240.032 142.032 239.136 142.382 239.136 143.194C239.136 144.202 240.522 144.594 241.292 144.86C244.232 145.84 244.834 147.254 244.834 148.584C244.834 150.208 243.672 152.21 240.718 152.21C238.73 152.21 236.714 151.146 236.714 148.92C236.714 147.73 237.428 147.03 237.568 147.03C237.806 147.03 237.568 149.872 240.578 149.872C241.642 149.872 242.566 149.41 242.566 148.542C242.566 147.52 241.306 147.1 240.494 146.848C237.428 145.896 237.092 144.51 237.092 143.32C237.092 142.144 237.89 140.142 240.732 140.142C242.762 140.142 244.204 141.22 244.204 141.626C244.204 142.018 243.476 143.292 243.084 143.292ZM253.017 152H246.591C245.849 152.028 246.073 151.538 246.003 148.696C246.003 146.82 246.773 140.352 247.179 140.352H252.695C252.863 140.352 253.367 140.31 253.367 140.59C253.367 140.702 252.471 142.662 252.289 142.662C252.051 142.662 251.631 142.004 250.259 142.004C249.293 142.004 248.271 142.578 248.271 143.922C248.271 144.216 248.327 144.72 248.719 144.72C249.167 144.72 250.161 144.062 251.337 144.062C251.505 144.062 251.967 144.118 251.967 144.356C251.967 144.37 251.183 146.652 251.015 146.652C250.875 146.652 250.343 146.372 249.797 146.372C249.083 146.372 248.047 146.89 248.047 148.276C248.047 149.396 248.635 150.208 249.811 150.208C251.197 150.208 252.051 149.284 252.387 149.284C252.597 149.284 253.535 151.65 253.535 151.79C253.535 152.056 253.185 152 253.017 152ZM260.642 152H254.944C254.202 152.028 254.426 151.538 254.356 148.696C254.356 146.82 255.126 140.352 255.532 140.352H257.758C257.856 140.352 258.024 140.38 258.024 140.632C258.024 140.94 256.4 143.95 256.4 147.814C256.4 149.746 257.24 150.208 258.01 150.208C259.298 150.208 260.082 149.018 260.432 149.018C260.698 149.018 261.244 151.72 261.244 151.79C261.244 152.07 260.81 152 260.642 152ZM267.207 140.352H268.257C268.817 140.352 268.929 140.548 268.929 141.094C268.929 145.504 265.233 146.414 265.233 150.838C265.233 151.146 265.317 151.44 265.317 151.734C265.317 152.028 264.883 152 264.673 152H263.049C262.671 152 262.615 151.468 262.615 151.188C262.615 149.508 263.553 148.29 263.553 147.814C263.553 147.324 260.361 145.126 260.361 141.416C260.361 140.366 260.557 140.352 261.187 140.352H262.307C262.573 140.352 263.105 140.324 263.105 140.716C263.105 140.828 262.979 141.57 262.979 141.808C262.979 143.81 264.351 145.616 264.771 145.616C265.177 145.616 266.773 143.404 266.773 141.738C266.773 141.29 266.647 140.702 266.647 140.59C266.647 140.296 267.011 140.352 267.207 140.352ZM275.461 152.21C274.593 152.21 273.907 151.51 273.907 150.656C273.907 149.816 274.607 149.13 275.447 149.13C276.329 149.13 277.043 149.802 277.043 150.67C277.043 151.538 276.329 152.21 275.461 152.21ZM274.691 140.352H276.553C276.735 140.352 277.043 140.38 277.043 140.618C277.043 140.842 275.937 142.76 275.937 144.72C275.937 146.12 276.161 147.8 276.161 148.08C276.161 148.22 275.559 148.276 275.181 148.276C274.537 148.276 273.907 143.908 273.907 142.396C273.907 140.1 274.131 140.352 274.691 140.352ZM280.014 152.21C279.146 152.21 278.46 151.51 278.46 150.656C278.46 149.816 279.16 149.13 280 149.13C280.882 149.13 281.596 149.802 281.596 150.67C281.596 151.538 280.882 152.21 280.014 152.21ZM279.244 140.352H281.106C281.288 140.352 281.596 140.38 281.596 140.618C281.596 140.842 280.49 142.76 280.49 144.72C280.49 146.12 280.714 147.8 280.714 148.08C280.714 148.22 280.112 148.276 279.734 148.276C279.09 148.276 278.46 143.908 278.46 142.396C278.46 140.1 278.684 140.352 279.244 140.352Z" fill="black"/>
</svg>
